<svg viewBox="0 0 20 20" fill="none" xmlns="http://www.w3.org/2000/svg"><path fill-rule="evenodd" clip-rule="evenodd" d="M13.333.833c.46 0 .833.373.833.834V2.5h1.667a2.5 2.5 0 0 1 2.5 2.5v11.667a2.5 2.5 0 0 1-2.5 2.5H4.167a2.5 2.5 0 0 1-2.5-2.5V5a2.5 2.5 0 0 1 2.5-2.5h1.666v-.833a.833.833 0 1 1 1.667 0V2.5h5v-.833c0-.46.373-.834.833-.834zm-7.5 3.334V5A.833.833 0 0 0 7.5 5v-.833h5V5a.833.833 0 0 0 1.666 0v-.833h1.667c.46 0 .833.373.833.833v11.667c0 .46-.373.833-.833.833H4.167a.833.833 0 0 1-.834-.833V5c0-.46.373-.833.833-.833h1.667z" fill="#121214"/><path fill-rule="evenodd" clip-rule="evenodd" d="M11.667 8.333a.833.833 0 1 0 0 1.667h.488L10 12.155l-1.077-1.078a.833.833 0 0 0-1.179 0l-2.5 2.5a.833.833 0 1 0 1.179 1.179l1.91-1.91 1.078 1.076a.833.833 0 0 0 1.178 0l2.744-2.744v.489a.833.833 0 0 0 1.667 0v-2.5a.833.833 0 0 0-.833-.834h-2.5z" fill="#F7A600"/></svg>