<svg width="48" height="48" viewBox="0 0 48 48" fill="none" xmlns="http://www.w3.org/2000/svg">
<circle cx="24" cy="24" r="24" fill="#FF9040"/>
<path d="M24.092 34.216C23.084 34.216 22.188 34.0667 21.404 33.768C20.6387 33.4693 19.9947 33.068 19.472 32.564C18.9493 32.0413 18.548 31.4347 18.268 30.744C18.0067 30.0347 17.876 29.288 17.876 28.504C17.876 28.2613 17.8853 28.0467 17.904 27.86C17.9413 27.6733 17.9787 27.496 18.016 27.328H16V25.004H19.164L23.084 22.876H16V20.524H26.192C26.304 20.244 26.36 19.8987 26.36 19.488C26.36 18.6107 26.1173 17.976 25.632 17.584C25.1653 17.192 24.5027 16.996 23.644 16.996C22.2253 16.996 21.0307 17.5373 20.06 18.62L18.156 16.352C18.8093 15.6053 19.6307 15.0267 20.62 14.616C21.628 14.2053 22.7013 14 23.84 14C24.7547 14 25.576 14.14 26.304 14.42C27.032 14.6813 27.648 15.0453 28.152 15.512C28.656 15.96 29.0387 16.5013 29.3 17.136C29.58 17.752 29.72 18.4147 29.72 19.124C29.72 19.6093 29.664 20.076 29.552 20.524H31.652V22.876H28.264L24.428 25.004H31.652V27.328H21.404C21.292 27.6453 21.236 27.9907 21.236 28.364C21.236 29.3347 21.4973 30.0627 22.02 30.548C22.5613 31.0333 23.308 31.276 24.26 31.276C24.9507 31.276 25.604 31.1267 26.22 30.828C26.8547 30.5107 27.5267 29.9787 28.236 29.232L30.168 31.528C29.4773 32.3307 28.6187 32.984 27.592 33.488C26.5653 33.9733 25.3987 34.216 24.092 34.216Z" fill="white"/>
</svg>
