<svg width="64" height="65" viewBox="0 0 64 65" fill="none" xmlns="http://www.w3.org/2000/svg">
<rect y="0.54541" width="64" height="64" rx="32" fill="#F7A600" fill-opacity="0.12"/>
<path d="M42 24.6704V23.5454C42 22.9931 41.5523 22.5454 41 22.5454H21C20.4477 22.5454 20 22.9931 20 23.5454V38.5454C20 39.0977 20.4477 39.5454 21 39.5454H29" stroke="#121214" stroke-width="2"/>
<line x1="24" y1="28.5454" x2="27" y2="28.5454" stroke="#F7A600" stroke-width="2" stroke-linecap="round"/>
<ellipse cx="41.0724" cy="31.5454" rx="0.982587" ry="1" fill="#F7A600"/>
<path d="M32.9288 41.9398C31.9336 42.9733 29.2878 43.4365 29.2878 43.4365C29.2878 43.4365 29.8385 40.5832 30.7306 39.6568C31.4861 38.8722 32.5829 38.7288 33.2019 39.3716C33.8208 40.0145 33.6843 41.1552 32.9288 41.9398Z" fill="#F7A600"/>
<path d="M39.0292 41.475L38.8261 41.6816L36.9439 38.799C36.283 39.162 35.2826 38.9371 34.5708 38.2126C33.8582 37.4874 33.6379 36.4685 34.011 35.7792L31.2131 33.8635L31.4162 33.6569C32.5694 32.4832 33.7226 31.9654 35.1463 31.999C38.181 28.3919 42.7243 26.7712 45.0307 27.3919L45.1663 27.4278L45.2008 27.565C45.8115 29.9131 44.201 34.5186 40.6739 37.6262C40.7249 39.0934 40.2161 40.267 39.0292 41.475Z" stroke="#F7A600" stroke-width="2"/>
</svg>
