<svg width="16" height="17" viewBox="0 0 16 17" fill="none" xmlns="http://www.w3.org/2000/svg">
<path fill-rule="evenodd" clip-rule="evenodd" d="M2.66732 4.21208C2.66732 3.4757 3.26427 2.87874 4.00065 2.87874L12.0007 2.87874C12.737 2.87874 13.334 3.4757 13.334 4.21208L13.334 11.0454L3.58398 11.0454C3.25752 11.0454 2.9473 11.1149 2.66732 11.24L2.66732 4.21208ZM1.34124 13.4775C1.43392 14.635 2.40263 15.5454 3.58398 15.5454L12.0007 15.5454C12.3688 15.5454 12.6673 15.2469 12.6673 14.8787C12.6673 14.5106 12.3688 14.2121 12.0007 14.2121L3.58398 14.2121C3.07772 14.2121 2.66732 13.8017 2.66732 13.2954C2.66732 12.7892 3.07772 12.3787 3.58398 12.3787L14.0007 12.3787C14.3688 12.3787 14.6673 12.0803 14.6673 11.7121L14.6673 4.21208C14.6673 2.73932 13.4734 1.54541 12.0007 1.54541L4.00065 1.54541C2.52789 1.54541 1.33398 2.73932 1.33398 4.21208L1.33398 13.2954V13.3787C1.33398 13.4123 1.33646 13.4453 1.34124 13.4775ZM7.74757 4.79925C7.2938 4.83212 7.01413 5.07322 6.94842 5.27035C6.84363 5.58471 6.50384 5.75461 6.18948 5.64982C5.87511 5.54503 5.70522 5.20523 5.81001 4.89087C6.07763 4.08802 6.89796 3.65765 7.66086 3.60238C8.46251 3.54431 9.36146 3.87522 9.89371 4.76231C10.1525 5.19358 10.255 5.63253 10.2152 6.05905C10.176 6.47873 10.0036 6.84025 9.78806 7.13416C9.36752 7.70762 8.73097 8.09685 8.28224 8.28917C7.97766 8.4197 7.62493 8.27861 7.4944 7.97403C7.36386 7.66946 7.50495 7.31673 7.80953 7.18619C8.13857 7.04517 8.56868 6.76773 8.82037 6.42452C8.94095 6.26009 9.00605 6.10078 9.02035 5.94754C9.03402 5.80115 9.00595 5.61509 8.86472 5.3797C8.59697 4.93345 8.16259 4.76918 7.74757 4.79925ZM8.6681 9.3789C8.6681 9.74709 8.36963 10.0456 8.00144 10.0456C7.63325 10.0456 7.33477 9.74709 7.33477 9.3789C7.33477 9.01071 7.63325 8.71223 8.00144 8.71223C8.36963 8.71223 8.6681 9.01071 8.6681 9.3789Z" fill="#D6850D"/>
</svg>
