<svg width="16" height="17" viewBox="0 0 16 17" fill="none" xmlns="http://www.w3.org/2000/svg">
<path fill-rule="evenodd" clip-rule="evenodd" d="M1.99935 8.54549C1.99935 5.23178 4.68564 2.54549 7.99935 2.54549C11.3131 2.54549 13.9993 5.23178 13.9993 8.54549C13.9993 11.8592 11.3131 14.5455 7.99935 14.5455C4.68564 14.5455 1.99935 11.8592 1.99935 8.54549ZM7.99935 1.21216C3.94926 1.21216 0.666016 4.4954 0.666016 8.54549C0.666016 12.5956 3.94926 15.8788 7.99935 15.8788C12.0494 15.8788 15.3327 12.5956 15.3327 8.54549C15.3327 4.4954 12.0494 1.21216 7.99935 1.21216ZM7.03582 5.32413C6.83124 5.18775 6.56822 5.17503 6.35144 5.29104C6.13467 5.40706 5.99935 5.63296 5.99935 5.87883L5.99935 11.2122C5.99935 11.458 6.13467 11.6839 6.35144 11.7999C6.56822 11.916 6.83124 11.9032 7.03582 11.7669L11.0358 9.10019C11.2213 8.97655 11.3327 8.7684 11.3327 8.54549C11.3327 8.32259 11.2213 8.11444 11.0358 7.99079L7.03582 5.32413ZM9.46416 8.54549L7.33268 9.96648L7.33268 7.1245L9.46416 8.54549Z" fill="#D6850D"/>
</svg>
