<svg width="48" height="48" viewBox="0 0 48 48" fill="none" xmlns="http://www.w3.org/2000/svg">
<circle cx="24" cy="24" r="24" fill="#49D6DD"/>
<path fill-rule="evenodd" clip-rule="evenodd" d="M13.7 13C13.2 10.4 15.2 8 17.8 8C20.1 8 22 9.9 22 12.2V17.4C22.6 17.4 23.2 17.3 23.8 17.3C24.4 17.3 24.9 17.3 25.5 17.4V12.2C25.5 9.9 27.4 8 29.7 8C32.3 8 34.3 10.4 33.9 13L32.8 19.1C36.7 20.8 39.7 23.8 39.7 27.5V29.8C39.7 32.9 37.7 35.5 34.8 37.2C31.9 39 28.1 40 23.8 40C19.5 40 15.7 39 12.8 37.2C10 35.5 8 32.9 8 29.8V27.5C8 23.8 10.9 20.8 14.8 19.1L13.7 13ZM31.3 19.9L32.6 12.7C32.9 10.9 31.6 9.2 29.7 9.2C28.1 9.2 26.8 10.5 26.8 12.1V18.7C26.4 18.6 25.9 18.6 25.5 18.6C24.9 18.6 24.4 18.5 23.8 18.5C23.2 18.5 22.6 18.5 22 18.6C21.6 18.6 21.1 18.7 20.7 18.7V12.2C20.7 10.6 19.4 9.3 17.8 9.3C16 9.3 14.6 11 15 12.8L16.3 20C12.1 21.6 9.3 24.4 9.3 27.6V29.9C9.3 34.8 15.8 38.8 23.8 38.8C31.8 38.8 38.3 34.8 38.3 29.9V27.6C38.4 24.3 35.6 21.5 31.3 19.9Z" fill="#633001"/>
<path d="M38.4004 29.8C38.4004 34.7 31.9004 38.7 23.9004 38.7C15.9004 38.7 9.40039 34.7 9.40039 29.8V27.5H38.5004V29.8H38.4004Z" fill="#FEDC90"/>
<path fill-rule="evenodd" clip-rule="evenodd" d="M15.0004 12.7998C14.6004 10.9998 16.0004 9.2998 17.8004 9.2998C19.4004 9.2998 20.7004 10.5998 20.7004 12.1998V18.7998C21.7004 18.6998 22.7004 18.5998 23.8004 18.5998C24.8004 18.5998 25.8004 18.6998 26.8004 18.7998V12.1998C26.8004 10.5998 28.1004 9.2998 29.7004 9.2998C31.5004 9.2998 32.9004 10.9998 32.6004 12.7998L31.3004 19.9998C35.5004 21.5998 38.4004 24.3998 38.4004 27.5998C38.4004 32.4998 31.9004 36.4998 23.9004 36.4998C15.9004 36.4998 9.40039 32.4998 9.40039 27.5998C9.40039 24.3998 12.2004 21.5998 16.4004 19.9998L15.0004 12.7998Z" fill="#D1884F"/>
<path d="M19.7996 26.9C19.7996 28.2 19.0996 29.3 18.1996 29.3C17.2996 29.3 16.5996 28.2 16.5996 26.9C16.5996 25.6 17.2996 24.5 18.1996 24.5C19.0996 24.5 19.7996 25.6 19.7996 26.9Z" fill="#633001"/>
<path d="M30.9002 26.9C30.9002 28.2 30.2002 29.3 29.3002 29.3C28.4002 29.3 27.7002 28.2 27.7002 26.9C27.7002 25.6 28.4002 24.5 29.3002 24.5C30.2002 24.5 30.9002 25.6 30.9002 26.9Z" fill="#633001"/>
</svg>
