<svg width="48" height="48" viewBox="0 0 48 48" fill="none" xmlns="http://www.w3.org/2000/svg">
<rect width="48" height="48" rx="24" fill="#0F3158"/>
<g clip-path="url(#clip0_8489_11788)">
<path d="M13.3157 30.0158C13.4351 30.2149 13.5466 30.398 13.6621 30.5891C18.4754 27.8181 23.2649 25.0512 28.0703 22.2762C28.1857 22.4713 28.2972 22.6584 28.4126 22.8535C28.5122 22.7978 28.5998 22.75 28.6834 22.6982C30.3475 21.7387 32.0117 20.7753 33.6759 19.8158C35.4316 18.8006 37.1874 17.7893 38.9431 16.7741C39.0068 16.7383 39.0944 16.6746 39.0944 16.6188C39.1063 16.3163 39.1581 15.9898 39.0665 15.7111C39.0148 15.5519 38.7201 15.4762 38.533 15.3608C38.5052 15.3448 38.4733 15.3329 38.4494 15.309C38.318 15.1936 38.2026 15.2254 38.0593 15.309C28.8386 20.6479 19.6101 25.9748 10.3815 31.3057C9.92365 31.5685 9.45785 31.8233 9 32.0821C9 32.2135 9 32.3488 9 32.4802C9.05972 32.4523 9.12342 32.4324 9.17916 32.4006C10.2541 31.7835 11.3251 31.1624 12.4 30.5453C12.7026 30.3701 13.0052 30.195 13.3157 30.0158Z" fill="white"/>
<path d="M13.6621 27.8541C18.4714 25.0791 23.2689 22.3122 28.0742 19.5372C28.1937 19.7403 28.3012 19.9274 28.4166 20.1225C31.4822 18.3508 34.5279 16.5911 37.5934 14.8194C37.0838 14.5248 36.5862 14.2461 36.1005 13.9515C35.9532 13.8599 35.8457 13.8599 35.6904 13.9475C32.3183 15.9023 28.9422 17.8492 25.57 19.796C20.0998 22.9571 14.6295 26.1143 9.15925 29.2714C9.11148 29.2993 9.05176 29.3152 9 29.3351C9 29.4824 9 29.6257 9 29.773C10.4372 28.941 11.8745 28.1089 13.3157 27.2728C13.4391 27.4838 13.5466 27.663 13.6621 27.8541Z" fill="white"/>
<path d="M13.1007 24.6651C13.1724 24.6253 13.244 24.5855 13.3197 24.5417C13.4431 24.7487 13.5506 24.9319 13.6621 25.119C17.6871 22.7939 21.6923 20.4848 25.6974 18.1717C25.8208 18.3747 25.9323 18.5618 26.0478 18.7489C29.1094 16.9813 32.1511 15.2255 35.2246 13.4499C34.7747 13.1911 34.3447 12.9801 33.9586 12.7094C33.6401 12.4864 33.4052 12.5262 33.0787 12.7133C26.4698 16.5433 19.8529 20.3653 13.2361 24.1834C11.8267 25.0035 10.4133 25.8157 9 26.6279C9 26.7593 9 26.8946 9 27.026C9.0637 26.9942 9.13138 26.9623 9.1911 26.9265C10.497 26.174 11.7988 25.4176 13.1007 24.6651Z" fill="white"/>
<path d="M11.759 22.71C12.2766 22.4114 12.7902 22.1128 13.3157 21.8102C13.4311 22.0093 13.5426 22.1924 13.6581 22.3915C16.871 20.5362 20.0639 18.6929 23.2609 16.8495C23.3843 17.0566 23.4918 17.2357 23.6073 17.4268C26.6927 15.6432 29.7623 13.8676 32.8478 12.084C32.3143 11.7774 31.8087 11.4868 31.307 11.1882C31.1876 11.1165 31.1 11.1285 30.9845 11.1961C24.3159 15.054 17.6433 18.9079 10.9667 22.7617C10.3138 23.136 9.65691 23.5062 9 23.8805C9 24.0118 9 24.1472 9 24.2786C9.05972 24.2507 9.12342 24.2308 9.17916 24.199C10.0391 23.7053 10.8991 23.2076 11.759 22.71Z" fill="white"/>
<path d="M13.6621 19.6564C16.0827 18.259 18.4834 16.8696 20.896 15.4761C21.0155 15.6752 21.1269 15.8623 21.2424 16.0574C24.3239 14.2778 27.3934 12.5101 30.4829 10.7265C30.4073 10.6787 30.3515 10.6429 30.2958 10.611C29.8499 10.3522 29.4 10.0974 28.9541 9.83068C28.8307 9.75504 28.7391 9.763 28.6157 9.83467C23.5157 12.7848 18.4157 15.7269 13.3157 18.6731C11.8785 19.5052 10.4372 20.3412 9 21.1733C9 21.3047 9 21.4401 9 21.5714C10.4372 20.7393 11.8745 19.9073 13.3157 19.0712C13.4391 19.2782 13.5506 19.4653 13.6621 19.6564Z" fill="white"/>
<path d="M39.0905 31.1348C33.5048 34.3596 27.947 37.5725 22.3652 40.7973C22.4767 40.8769 22.5683 40.9366 22.6559 41.0003C22.6837 41.0003 22.7076 41.0003 22.7355 41.0003C23.2093 40.7216 23.6791 40.439 24.1528 40.1603C24.4833 39.9652 24.8137 39.7781 25.1561 39.579C25.2755 39.7821 25.383 39.9692 25.4985 40.1643C26.3385 39.6786 27.1666 39.2008 27.9987 38.7191C28.1221 38.9261 28.2336 39.1092 28.3411 39.2924C28.3809 39.2725 28.3969 39.2685 28.4168 39.2565C31.9402 37.2261 35.4636 35.1917 38.987 33.1533C39.0467 33.1174 39.0985 33.0099 39.0985 32.9383C39.1065 32.3889 39.1025 31.8355 39.1025 31.2861C39.1025 31.2462 39.0945 31.2024 39.0905 31.1348Z" fill="white"/>
<path d="M13.6581 16.9172C15.2904 15.9776 16.9028 15.046 18.5272 14.1104C18.6506 14.3135 18.762 14.5006 18.8815 14.6957C21.959 12.916 25.0246 11.1444 28.122 9.35679C27.6801 9.10199 27.2461 8.89496 26.8639 8.62026C26.5375 8.38536 26.2986 8.43314 25.9681 8.62424C20.3147 11.9008 14.6574 15.1615 9 18.4261C9 18.5575 9 18.6929 9 18.8242C10.4333 18.0001 11.8705 17.176 13.3197 16.3439C13.4351 16.539 13.5466 16.7221 13.6581 16.9172Z" fill="white"/>
<path d="M13.0649 13.7482C13.1485 13.7005 13.2321 13.6527 13.3197 13.6049C13.4391 13.804 13.5426 13.9871 13.6581 14.1822C14.4981 13.7005 15.3222 13.2307 16.1583 12.7489C16.2778 12.948 16.3892 13.1311 16.5047 13.3222C19.5941 11.5386 22.6597 9.77096 25.7492 7.98735C25.5979 7.89977 25.4785 7.83208 25.359 7.76042C24.937 7.5096 24.515 7.2548 24.089 7C24.0611 7 24.0372 7 24.0094 7C23.9536 7.03981 23.8979 7.08759 23.8382 7.12342C19.0965 9.86651 14.3508 12.6056 9.60913 15.3487C9.41007 15.4642 9.20304 15.5717 9 15.6792C9 15.8105 9 15.9459 9 16.0773C9.05972 16.0494 9.12342 16.0295 9.17916 15.9977C10.4731 15.2492 11.771 14.4967 13.0649 13.7482Z" fill="white"/>
<path d="M13.2758 32.7746C13.3913 32.9697 13.4948 33.1489 13.6142 33.3479C18.4196 30.573 23.2051 27.814 27.9985 25.043C28.118 25.2461 28.2255 25.4332 28.3369 25.6243C28.4006 25.5885 28.4484 25.5686 28.4962 25.5407C31.8603 23.5978 35.2166 21.651 38.5887 19.728C38.9868 19.5011 39.158 19.2662 39.1102 18.8084C39.0664 18.3704 39.1023 17.9245 39.1023 17.4468C29.5592 22.9648 20.0479 28.455 10.5327 33.9531C10.7437 34.1681 10.9189 34.1442 11.1418 34.0049C11.7868 33.6107 12.4477 33.2444 13.1006 32.8662C13.1564 32.8344 13.2161 32.8105 13.2758 32.7746Z" fill="white"/>
<path d="M16.0307 34.6939C20.0239 32.3887 24.0092 30.0915 27.9984 27.7864C28.1178 27.9894 28.2253 28.1726 28.3368 28.3597C28.3766 28.3477 28.3925 28.3438 28.4005 28.3398C31.9279 26.3014 35.4593 24.2669 38.9867 22.2246C39.0464 22.1927 39.0982 22.0932 39.0982 22.0255C39.1061 21.4602 39.1021 20.8988 39.1021 20.3335C39.1021 20.2976 39.0902 20.2618 39.0822 20.2061C30.3434 25.2463 21.6244 30.2826 12.8975 35.319C13.2 35.5459 13.2 35.5499 13.5026 35.3747C14.2232 34.9567 14.9478 34.5386 15.6843 34.1126C15.7958 34.3037 15.9073 34.4908 16.0307 34.6939Z" fill="white"/>
<path d="M39.1024 23.7892C39.1024 23.5145 39.1024 23.2398 39.1024 22.9253C31.1359 27.5197 23.2052 32.0981 15.2666 36.6806C15.5612 36.9234 15.5612 36.9234 15.8598 36.7522C16.3654 36.4576 16.8671 36.167 17.3727 35.8763C17.5956 35.7489 17.8186 35.6176 18.0535 35.4822C18.1729 35.6852 18.2884 35.8724 18.4038 36.0635C21.6127 34.2082 24.8017 32.3688 28.0027 30.5176C28.1181 30.7166 28.2256 30.8958 28.345 31.0988C28.4127 31.063 28.4645 31.0351 28.5162 31.0073C30.3795 29.9323 32.2467 28.8534 34.1099 27.7785C35.7183 26.8508 37.3228 25.9192 38.9312 24.9995C39.0626 24.9239 39.1183 24.8443 39.1104 24.689C39.0945 24.3864 39.1024 24.0878 39.1024 23.7892Z" fill="white"/>
<path d="M20.4262 36.8553C20.5456 37.0544 20.6531 37.2375 20.7686 37.4286C23.1932 36.0312 25.5939 34.6457 28.0026 33.2523C28.122 33.4553 28.2295 33.6345 28.341 33.8216C28.3808 33.8057 28.3927 33.8017 28.4047 33.7937C31.9321 31.7553 35.4634 29.7209 38.9869 27.6785C39.0466 27.6427 39.0983 27.5352 39.0983 27.4595C39.1063 26.9141 39.1023 26.3727 39.1023 25.8272C39.1023 25.7794 39.0904 25.7317 39.0824 25.668C31.9201 29.8045 24.7817 33.9291 17.6313 38.0576C17.9339 38.2846 17.9339 38.2846 18.2325 38.1134C18.8934 37.7312 19.5543 37.353 20.2112 36.9708C20.2789 36.9309 20.3466 36.8951 20.4262 36.8553Z" fill="white"/>
<path d="M23.1337 38.7981C24.766 37.8546 26.3784 36.923 27.9988 35.9834C28.1182 36.1904 28.2257 36.3696 28.3372 36.5646C28.4208 36.5209 28.4885 36.485 28.5561 36.4452C30.8016 35.1513 33.043 33.8534 35.2845 32.5595C36.4988 31.8588 37.717 31.1541 38.9313 30.4494C38.999 30.4096 39.0906 30.338 39.0906 30.2782C39.1025 29.6651 39.0985 29.048 39.0985 28.3911C32.7086 32.0817 26.3585 35.7485 20.0044 39.4192C20.2074 39.6183 20.3866 39.6302 20.6135 39.4789C20.936 39.26 21.2864 39.0808 21.6248 38.8857C22.0149 38.6628 22.4011 38.4398 22.7953 38.2129C22.9147 38.4159 23.0222 38.6031 23.1337 38.7981Z" fill="white"/>
</g>
<defs>
<clipPath id="clip0_8489_11788">
<rect width="30.1222" height="34" fill="white" transform="translate(9 7)"/>
</clipPath>
</defs>
</svg>
