<svg width="48" height="48" viewBox="0 0 48 48" fill="none" xmlns="http://www.w3.org/2000/svg">
<circle cx="24" cy="24" r="24" fill="black"/>
<path d="M27.3385 17.7017C27.3385 19.2324 27.3357 20.7631 27.3357 22.2937C27.3357 22.5912 27.2924 22.6359 26.9949 22.6345C24.8595 22.6317 22.7241 22.6317 20.5874 22.6289C20.4882 22.6289 20.389 22.6149 20.2913 22.6247C20.1349 22.6387 20.0902 22.5549 20.0888 22.4208C20.0874 22.0312 20.086 21.6415 20.086 21.2505C20.086 20.0927 20.086 18.9335 20.0832 17.7758C20.0832 17.523 20.0455 17.4895 19.7983 17.4895C17.3431 17.4867 14.8865 17.4825 12.4313 17.4797C12.1701 17.4797 11.9075 17.4909 11.6464 17.4867C10.8252 17.4741 10.2316 17.0775 9.86992 16.3568C9.34201 15.3038 8.83784 14.2368 8.3239 13.1754C7.99151 12.4883 7.64935 11.8025 7.32953 11.107C7.12563 10.6643 7.3421 10.3068 7.82113 10.297C8.88533 10.2775 9.94953 10.2691 11.0123 10.2677C19.6195 10.2677 28.2253 10.2677 36.8325 10.2677C37.6118 10.2677 38.3925 10.2663 39.1718 10.2733C39.4106 10.2761 39.6466 10.3054 39.8421 10.4786C40.0167 10.6336 40.0349 10.8221 39.9525 11.0093C39.729 11.5162 39.4902 12.0162 39.2472 12.5148C38.6634 13.7117 38.0768 14.9058 37.4833 16.0985C37.3548 16.3568 37.2179 16.618 37.0448 16.8484C36.7724 17.2115 36.3758 17.428 35.9359 17.4448C34.8926 17.4853 33.8466 17.4755 32.8019 17.4797C31.0506 17.4867 29.2993 17.4909 27.548 17.4936C27.4306 17.4936 27.3161 17.4895 27.3399 17.6598C27.3357 17.664 27.3287 17.6682 27.3287 17.671C27.3287 17.6808 27.3343 17.6906 27.3371 17.7003L27.3385 17.7017Z" fill="white"/>
<path d="M23.6848 29.8528C24.7671 29.8528 25.8495 29.8528 26.9305 29.8528C26.9933 29.8528 27.0589 29.8542 27.1204 29.8653C27.2475 29.8877 27.3173 29.9477 27.3131 30.0986C27.3047 30.3597 27.3257 30.6209 27.3271 30.8835C27.3299 32.5133 27.3299 34.1417 27.3313 35.7715C27.3313 36.1486 27.2419 36.5075 27.0771 36.8427C26.7182 37.5759 26.3481 38.3035 25.985 39.0354C25.4361 40.1401 24.8872 41.2434 24.344 42.3495C24.2253 42.5911 24.0339 42.7168 23.7825 42.7307C23.527 42.7461 23.3608 42.5827 23.2532 42.3662C22.9292 41.7168 22.6108 41.066 22.2882 40.4152C21.6374 39.1038 20.9894 37.791 20.3344 36.4824C20.1346 36.083 20.0774 35.6654 20.0816 35.2213C20.0928 33.8428 20.0844 32.463 20.0802 31.0846C20.0802 30.8136 20.0592 30.5427 20.0453 30.2718C20.0299 29.9813 20.1472 29.8416 20.4559 29.8458C21.5312 29.8598 22.608 29.8514 23.6848 29.8514V29.8528Z" fill="white"/>
<path d="M30.5375 22.6299C31.4802 22.6299 32.4229 22.6299 33.3642 22.6313C33.508 22.6313 33.6575 22.6313 33.7943 22.6662C34.2748 22.7891 34.4214 23.0991 34.2105 23.5474C33.948 24.1061 33.6589 24.6507 33.3865 25.2052C32.7678 26.4607 32.1589 27.7205 31.5291 28.9718C31.2721 29.4816 30.8364 29.7287 30.2596 29.7916C29.3518 29.8894 28.4426 29.8335 27.5348 29.8572C27.3924 29.8614 27.3365 29.8125 27.3379 29.6743C27.3393 29.5179 27.3295 29.36 27.3295 29.2036C27.3295 27.1842 27.3281 25.1661 27.3281 23.1466C27.3281 23.0824 27.3295 23.0181 27.3309 22.9553C27.3407 22.6411 27.3463 22.6327 27.6731 22.6327C28.627 22.6313 29.5808 22.6327 30.5347 22.6327L30.5375 22.6299Z" fill="white"/>
</svg>
