<svg width="18" height="18" viewBox="0 0 18 18" fill="none" xmlns="http://www.w3.org/2000/svg">
<g clip-path="url(#clip0_356_42580)">
<path fill-rule="evenodd" clip-rule="evenodd" d="M2.25 9C2.25 5.27208 5.27208 2.25 9 2.25C12.7279 2.25 15.75 5.27208 15.75 9C15.75 12.7279 12.7279 15.75 9 15.75C5.27208 15.75 2.25 12.7279 2.25 9ZM9 0.75C4.44365 0.75 0.75 4.44365 0.75 9C0.75 13.5563 4.44365 17.25 9 17.25C13.5563 17.25 17.25 13.5563 17.25 9C17.25 4.44365 13.5563 0.75 9 0.75ZM12.912 7.64858C13.2012 7.352 13.1952 6.87716 12.8986 6.588C12.602 6.29884 12.1272 6.30485 11.838 6.60143L7.96797 10.5707L6.14224 8.8319C5.8423 8.54623 5.36756 8.55781 5.0819 8.85776C4.79623 9.15771 4.80781 9.63244 5.10776 9.9181L7.46489 12.163C7.76532 12.4491 8.24003 12.4403 8.52968 12.1433L12.912 7.64858Z" fill="#20B26C"/>
</g>
<defs>
<clipPath id="clip0_356_42580">
<rect width="18" height="18" fill="white"/>
</clipPath>
</defs>
</svg>
