<svg width="48" height="48" viewBox="0 0 48 48" fill="none" xmlns="http://www.w3.org/2000/svg">
<g clip-path="url(#clip0)">
<path d="M23.9797 48C37.2234 48 47.9595 37.2548 47.9595 24C47.9595 10.7452 37.2234 0 23.9797 0C10.7361 0 0 10.7452 0 24C0 37.2548 10.7361 48 23.9797 48Z" fill="#2775CA"/>
<path d="M19.4837 40.6875C19.4837 41.25 19.0341 41.5687 18.5095 41.4C11.2407 39.075 5.99512 32.2875 5.99512 24.2437C5.99512 16.2187 11.2407 9.41246 18.5095 7.08746C19.0528 6.91871 19.4837 7.23746 19.4837 7.79996V9.20621C19.4837 9.58121 19.2027 10.0125 18.8468 10.1437C13.0954 12.2625 8.99258 17.7937 8.99258 24.2437C8.99258 30.7125 13.0954 36.225 18.8468 38.325C19.2027 38.4562 19.4837 38.8875 19.4837 39.2625V40.6875Z" fill="white"/>
<path d="M25.4787 35.4937C25.4787 35.9062 25.1414 36.2437 24.7293 36.2437H23.2306C22.8184 36.2437 22.4812 35.9062 22.4812 35.4937V33.1312C19.2027 32.6812 17.6103 30.8624 17.1794 28.3499C17.1045 27.9187 17.4417 27.5437 17.8726 27.5437H19.5774C19.9333 27.5437 20.2331 27.8062 20.308 28.1437C20.6265 29.6249 21.4883 30.7687 24.1111 30.7687C26.0407 30.7687 27.427 29.6812 27.427 28.0687C27.427 26.4562 26.6214 25.8374 23.7738 25.3687C19.5774 24.8062 17.5916 23.5312 17.5916 20.2499C17.5916 17.7187 19.5212 15.7312 22.4812 15.3187V12.9937C22.4812 12.5812 22.8184 12.2437 23.2306 12.2437H24.7293C25.1414 12.2437 25.4787 12.5812 25.4787 12.9937V15.3749C27.8954 15.8062 29.4316 17.1749 29.9374 19.4624C30.0311 19.8937 29.6938 20.2874 29.2442 20.2874H27.6706C27.3333 20.2874 27.0523 20.0624 26.9587 19.7437C26.5278 18.2999 25.4974 17.6624 23.6989 17.6624C21.7131 17.6624 20.6827 18.6187 20.6827 19.9687C20.6827 21.3937 21.2635 22.1062 24.3171 22.5374C28.4387 23.0999 30.5743 24.2812 30.5743 27.7874C30.5743 30.4499 28.5885 32.6062 25.4974 33.0937V35.4937H25.4787Z" fill="white"/>
<path d="M29.4503 41.4C28.907 41.5687 28.4761 41.25 28.4761 40.6875V39.2812C28.4761 38.8687 28.7196 38.475 29.113 38.3437C34.8457 36.2437 38.9672 30.7125 38.9672 24.2625C38.9672 17.7937 34.8644 12.2812 29.113 10.1812C28.7571 10.05 28.4761 9.61875 28.4761 9.24375V7.8375C28.4761 7.275 28.9257 6.95625 29.4503 7.125C36.7191 9.4125 41.9647 16.2187 41.9647 24.2437C41.9647 32.2875 36.7191 39.075 29.4503 41.4Z" fill="white"/>
</g>
<defs>
<clipPath id="clip0">
<rect width="47.9595" height="48" fill="white"/>
</clipPath>
</defs>
</svg>
