<svg width="48" height="48" viewBox="0 0 48 48" fill="none" xmlns="http://www.w3.org/2000/svg">
<path fill-rule="evenodd" clip-rule="evenodd" d="M22.5642 7.56261C17.655 7.99123 13.4376 10.5261 10.7216 14.2042C10.2295 14.8707 9.29035 15.012 8.62392 14.5199C7.95749 14.0278 7.81616 13.0886 8.30826 12.4222C11.5137 8.08111 16.501 5.08057 22.3033 4.57398C33.032 3.63725 42.4887 11.5752 43.4255 22.304C43.4975 23.1293 42.8869 23.8567 42.0616 23.9288C41.2363 24.0008 40.5089 23.3902 40.4368 22.5649C39.6442 13.4868 31.6424 6.76999 22.5642 7.56261Z" fill="#F7A600"/>
<path fill-rule="evenodd" clip-rule="evenodd" d="M5.93743 24.0712C6.76272 23.9991 7.49016 24.6098 7.56221 25.435C8.35483 34.5132 16.3567 41.23 25.4348 40.4374C30.6251 39.9842 35.043 37.1763 37.7295 33.1522C38.1895 32.4632 39.1209 32.2775 39.8099 32.7375C40.4989 33.1974 40.6845 34.1289 40.2246 34.8179C37.0544 39.5665 31.8312 42.8903 25.6958 43.426C14.967 44.3627 5.51031 36.4247 4.57358 25.696C4.50153 24.8707 5.11214 24.1432 5.93743 24.0712Z" fill="#121214"/>
<path fill-rule="evenodd" clip-rule="evenodd" d="M7.49041 7.37295C8.3157 7.30089 9.04314 7.91151 9.11519 8.7368L9.5066 13.2197L13.9895 12.8283C14.8148 12.7563 15.5423 13.3669 15.6143 14.1922C15.6864 15.0175 15.0758 15.7449 14.2505 15.817L8.27322 16.3388C7.44793 16.4109 6.72049 15.8003 6.64844 14.975L6.12656 8.99773C6.05451 8.17245 6.66512 7.44501 7.49041 7.37295Z" fill="#F7A600"/>
<path fill-rule="evenodd" clip-rule="evenodd" d="M40.5081 40.6271C39.6828 40.6991 38.9554 40.0885 38.8833 39.2632L38.4919 34.7803L34.009 35.1717C33.1837 35.2437 32.4563 34.6331 32.3842 33.8078C32.3122 32.9825 32.9228 32.2551 33.7481 32.183L39.7253 31.6612C40.5506 31.5891 41.278 32.1997 41.3501 33.025L41.872 39.0023C41.944 39.8276 41.3334 40.555 40.5081 40.6271Z" fill="#121214"/>
<path fill-rule="evenodd" clip-rule="evenodd" d="M21 17.25C21 18.4926 19.9926 19.5 18.75 19.5C17.5074 19.5 16.5 18.4926 16.5 17.25C16.5 16.0074 17.5074 15 18.75 15C19.9926 15 21 16.0074 21 17.25ZM12 28.5C12 24.3579 15.3579 21 19.5 21V24C17.5407 24 15.8738 25.2522 15.2561 27H18V30H13.5V28.5H12ZM27.75 22.5C25.997 22.5 24.4 23.1683 23.2 24.2639C22.9354 24.0968 22.6219 24 22.2857 24C21.3389 24 20.5714 24.7675 20.5714 25.7143C20.5714 26.3097 20.875 26.8343 21.3358 27.1416C21.1179 27.8049 21 28.5137 21 29.25V30C21 30.4845 21.2297 30.9153 21.5861 31.1896C21.302 30.9806 20.9511 30.8571 20.5714 30.8571C19.6247 30.8571 18.8571 31.6247 18.8571 32.5714C18.8571 33.5182 19.6247 34.2857 20.5714 34.2857C21.5182 34.2857 22.2857 33.5182 22.2857 32.5714C22.2857 32.0168 22.0224 31.5238 21.6139 31.2104C21.8622 31.3925 22.1685 31.5 22.5 31.5H33C33.8284 31.5 34.5 30.8284 34.5 30V29.25C34.5 25.5221 31.4779 22.5 27.75 22.5ZM27.75 25.5C29.5642 25.5 31.0775 26.7883 31.425 28.5H24.075C24.4225 26.7883 25.9358 25.5 27.75 25.5ZM30 18.75C30 19.9926 28.9926 21 27.75 21C26.5074 21 25.5 19.9926 25.5 18.75C25.5 17.5074 26.5074 16.5 27.75 16.5C28.9926 16.5 30 17.5074 30 18.75ZM15.4286 34.2857C16.3753 34.2857 17.1429 33.5182 17.1429 32.5714C17.1429 31.6247 16.3753 30.8571 15.4286 30.8571C14.4818 30.8571 13.7143 31.6247 13.7143 32.5714C13.7143 33.5182 14.4818 34.2857 15.4286 34.2857Z" fill="#121214"/>
</svg>
