<svg width="48" height="48" viewBox="0 0 48 48" fill="none" xmlns="http://www.w3.org/2000/svg">
<path fill-rule="evenodd" clip-rule="evenodd" d="M31.6451 18V21.6551H26.0212V24.0448C30.5752 24.2492 34.0002 25.132 34.0002 26.1897C34.0002 27.2472 30.5752 28.1297 26.0212 28.3344V36H22.0144V28.3362C17.4427 28.1345 14.0002 27.2504 14.0002 26.1897C14.0002 25.1289 17.4427 24.2449 22.0144 24.0432V21.6551H16.3904V18H31.6451ZM26.0213 27.4189C29.6161 27.2564 32.278 26.6712 32.278 25.9736C32.278 25.276 29.6157 24.6905 26.0178 24.5285V26.7371C25.3802 26.7706 24.6996 26.7885 23.9968 26.7885C23.3049 26.7885 22.6379 26.7709 22.0108 26.7388V24.5219C18.3985 24.6837 15.719 25.2691 15.719 25.9703C15.719 26.6712 18.3981 27.2584 22.0108 27.4184L22.2487 27.4285H22.2519C22.4909 27.4376 22.7335 27.4451 22.9798 27.4505H23.0027L23.2105 27.4547H23.2709L23.4449 27.457H24.558L24.7338 27.4547H24.7968L25.0195 27.4502H25.0298C25.1959 27.4465 25.3599 27.4419 25.5219 27.4364H25.5455L25.7633 27.4285H25.789L26.0213 27.4189Z" fill="#F7A600"/>
<circle cx="24" cy="24" r="18" stroke="#121214" stroke-width="3.42857" stroke-linecap="round"/>
<line x1="29.714" y1="12.2855" x2="42.2855" y2="12.2855" stroke="#F7A600" stroke-width="3.42857" stroke-linecap="round"/>
<line x1="35.714" y1="5.71404" x2="35.714" y2="18.2855" stroke="#F7A600" stroke-width="3.42857" stroke-linecap="round"/>
</svg>
