<svg width="48" height="48" viewBox="0 0 48 48" fill="none" xmlns="http://www.w3.org/2000/svg">
<path fill-rule="evenodd" clip-rule="evenodd" d="M23 14L23 6L25 6L25 14L23 14Z" fill="#F7A600"/>
<path fill-rule="evenodd" clip-rule="evenodd" d="M4 18C4 14.6863 6.68629 12 10 12H38C41.3137 12 44 14.6863 44 18V26C44 27.1046 43.1046 28 42 28C40.8954 28 40 27.1046 40 26V18C40 16.8954 39.1046 16 38 16H10C8.89543 16 8 16.8954 8 18V38C8 39.1046 8.89543 40 10 40H26C27.1046 40 28 40.8954 28 42C28 43.1046 27.1046 44 26 44H10C6.68629 44 4 41.3137 4 38V18Z" fill="#121214"/>
<path fill-rule="evenodd" clip-rule="evenodd" d="M30 38C30 36.8954 30.8954 36 32 36L44 36C45.1046 36 46 36.8954 46 38C46 39.1046 45.1046 40 44 40L32 40C30.8954 40 30 39.1046 30 38Z" fill="#F7A600"/>
<path fill-rule="evenodd" clip-rule="evenodd" d="M38 46.0012C36.8954 46.0012 36 45.1058 36 44.0012L36 32.0012C36 30.8967 36.8954 30.0012 38 30.0012C39.1046 30.0012 40 30.8967 40 32.0012L40 44.0012C40 45.1058 39.1046 46.0012 38 46.0012Z" fill="#F7A600"/>
<circle cx="18" cy="26" r="2" fill="#F7A600"/>
<circle cx="30" cy="26" r="2" fill="#F7A600"/>
<circle cx="24" cy="4.99878" r="3" fill="#F7A600"/>
</svg>
