<svg width="20" height="20" viewBox="0 0 20 20" fill="none" xmlns="http://www.w3.org/2000/svg">
<path fill-rule="evenodd" clip-rule="evenodd" d="M10 15.8333C5.82804 15.8333 3.19325 12.2424 1.80853 10C3.19325 7.75761 5.82804 4.16667 10 4.16667C14.172 4.16667 16.8068 7.75761 18.1915 10C16.8068 12.2424 14.172 15.8333 10 15.8333ZM10 2.5C4.81598 2.5 1.74232 6.93306 0.383612 9.13539C0.0565363 9.66554 0.0565374 10.3345 0.383612 10.8646C1.74232 13.0669 4.81598 17.5 10 17.5C15.1841 17.5 18.2577 13.0669 19.6164 10.8646C19.9435 10.3345 19.9435 9.66554 19.6164 9.13539C18.2577 6.93306 15.1841 2.5 10 2.5ZM8.33336 10C8.33336 9.07952 9.07955 8.33333 10 8.33333C10.9205 8.33333 11.6667 9.07952 11.6667 10C11.6667 10.9205 10.9205 11.6667 10 11.6667C9.07955 11.6667 8.33336 10.9205 8.33336 10ZM10 6.66667C8.15907 6.66667 6.66669 8.15905 6.66669 10C6.66669 11.8409 8.15907 13.3333 10 13.3333C11.841 13.3333 13.3334 11.8409 13.3334 10C13.3334 8.15905 11.841 6.66667 10 6.66667Z" fill="#81858C"/>
</svg>
