<svg width="20" height="20" viewBox="0 0 20 20" fill="none" xmlns="http://www.w3.org/2000/svg">
<path fill-rule="evenodd" clip-rule="evenodd" d="M3.08922 1.91058C2.76378 1.58514 2.23614 1.58514 1.9107 1.91058C1.58527 2.23602 1.58527 2.76366 1.9107 3.08909L3.78722 4.96561C2.18498 6.35434 1.06723 8.02711 0.383612 9.13518C0.0565363 9.66533 0.0565374 10.3342 0.383612 10.8644C1.74232 13.0667 4.81598 17.4998 10 17.4998C11.8983 17.4998 13.5136 16.9054 14.8654 16.0437L16.9107 18.0891C17.2361 18.4145 17.7638 18.4145 18.0892 18.0891C18.4147 17.7637 18.4147 17.236 18.0892 16.9106L16.2127 15.0341C17.815 13.6453 18.9328 11.9725 19.6164 10.8644C19.9435 10.3342 19.9435 9.66533 19.6164 9.13518C18.2577 6.93285 15.1841 2.49979 10 2.49979C8.10168 2.49979 6.48633 3.09424 5.13455 3.95592L3.08922 1.91058ZM4.96922 6.14761C3.56016 7.34141 2.51955 8.84838 1.80853 9.99979C3.19325 12.2422 5.82804 15.8331 10 15.8331C11.3825 15.8331 12.5962 15.4388 13.6515 14.8299L11.6932 12.8716C11.1969 13.1646 10.6176 13.3332 10 13.3332C8.15907 13.3332 6.66669 11.8408 6.66669 9.99982C6.66669 9.38184 6.83527 8.8028 7.1283 8.30669L4.96922 6.14761ZM8.38967 9.56806C8.35291 9.70574 8.33336 9.85044 8.33336 9.99982C8.33336 10.9203 9.07955 11.6665 10 11.6665C10.1495 11.6665 10.2942 11.6469 10.4318 11.6102L8.38967 9.56806ZM15.0307 13.8521L6.34838 5.16974C7.40375 4.5608 8.61748 4.16645 10 4.16645C14.172 4.16645 16.8068 7.7574 18.1915 9.99978C17.4805 11.1512 16.4398 12.6582 15.0307 13.8521Z" fill="#81858C"/>
</svg>
